<?xml version="1.0" standalone="no"?>
<!DOCTYPE svg PUBLIC "-//W3C//DTD SVG 20010904//EN"
 "http://www.w3.org/TR/2001/REC-SVG-20010904/DTD/svg10.dtd">
<svg version="1.0" xmlns="http://www.w3.org/2000/svg"
 width="225.000000pt" height="225.000000pt" viewBox="0 0 225.000000 225.000000"
 preserveAspectRatio="xMidYMid meet">
<metadata>
Created by potrace 1.14, written by Peter Selinger 2001-2017
</metadata>
<g transform="translate(0.000000,225.000000) scale(0.100000,-0.100000)"
fill="#000000" stroke="none">
<path d="M1032 2159 c-43 -22 -102 -83 -102 -106 0 -10 -23 -13 -85 -13 -99 0
-125 -15 -125 -75 l0 -35 -159 0 c-148 0 -160 -1 -192 -23 -73 -49 -69 4 -67
-917 3 -807 3 -826 23 -852 11 -15 36 -36 56 -47 36 -21 48 -21 723 -21 751 0
727 -2 779 59 l27 33 0 835 c0 915 3 862 -58 908 -24 18 -45 20 -194 23 l-168
3 0 39 c0 59 -17 70 -115 70 -82 0 -85 1 -99 28 -31 60 -112 112 -173 112 -15
0 -47 -10 -71 -21z m141 -107 c9 -8 20 -33 23 -54 9 -54 33 -68 121 -68 l73 0
0 -95 0 -95 -280 0 -280 0 -1 43 c0 23 -1 66 -2 95 l-2 52 67 0 c86 0 116 12
123 47 9 45 29 77 55 90 29 15 77 8 103 -15z m-453 -301 c0 -59 4 -84 16 -95
13 -14 61 -16 373 -16 283 0 361 3 369 13 6 7 14 50 18 95 l7 82 142 0 c108 0
145 -3 154 -14 8 -10 10 -233 9 -822 l-3 -809 -695 0 -695 0 -3 814 c-2 645 0
816 10 823 7 4 77 8 156 8 l142 0 0 -79z"/>
<path d="M1708 988 l-3 -683 -572 -3 c-592 -2 -598 -3 -561 -40 17 -17 1159
-17 1176 0 17 17 17 1379 0 1396 -38 38 -38 35 -40 -670z"/>
</g>
</svg>
